<?xml version="1.0" encoding="UTF-8"?>
<svg xmlns="http://www.w3.org/2000/svg" xmlns:xlink="http://www.w3.org/1999/xlink" viewBox="0 0 50 50" version="1.1" fill="#333333" width="24px" height="24px">
<g id="surface1" fill="#333333">
<path style=" " d="M 36 38 L 12 38 C 7.589844 38 4 34.410156 4 30 C 4 25.589844 7.589844 22 12 22 C 12.003906 22 12.007813 22 12.015625 22 C 12.003906 21.832031 12 21.664063 12 21.5 C 12 15.710938 16.710938 11 22.5 11 C 27.261719 11 31.316406 14.128906 32.585938 18.601563 C 33.679688 18.203125 34.820313 18 36 18 C 41.515625 18 46 22.484375 46 28 C 46 33.515625 41.515625 38 36 38 Z " fill="#333333"/>
</g>
</svg>
